# xmcd
#
# Track frame offsets:
#	150
#	19887
#	38156
#	63805
#	81729
#	109326
#	131947
#	154489
#	167751
#	186874
#	223039
#	246469
#
# Disc length: 3530 seconds
# Revision: 0
# Processed by: cddbd v1.5.2PL0 Copyright (c) Steve Scherf et al.
# Submitted via: dBpowerAMP V12.0
#
DISCID=b70dc80c
DTITLE=Lloyd Spiegel - Double Live Set
DYEAR=2015
DGENRE=Blues
TTITLE0=Rock And A Hard Place
TTITLE1=Walk On
TTITLE2=Blues, Leave Me Alone
TTITLE3=Back To The City
TTITLE4=If I Killed Ya When I Met Ya
TTITLE5=I Don't Need No Doctor
TTITLE6=Louisiana Blues
TTITLE7=Love And Money
TTITLE8=This Is Hip
TTITLE9=Murder For Breakfast
TTITLE10=2:19
TTITLE11=Goin' Home
EXTD=
EXTT0=
EXTT1=
EXTT2=
EXTT3=
EXTT4=
EXTT5=
EXTT6=
EXTT7=
EXTT8=
EXTT9=
EXTT10=
EXTT11=
PLAYORDER=
